<svg width="17" height="22" viewBox="0 0 17 22" fill="none" xmlns="http://www.w3.org/2000/svg">
<path d="M8.288 16.12C7.888 16.12 7.548 16.092 7.268 16.036C6.988 15.98 6.736 15.9 6.512 15.796C6.288 15.692 6.044 15.572 5.78 15.436V14.5C6.036 14.716 6.38 14.908 6.812 15.076C7.244 15.244 7.748 15.328 8.324 15.328C8.932 15.328 9.372 15.2 9.644 14.944C9.924 14.68 10.064 14.348 10.064 13.948C10.064 13.612 9.972 13.344 9.788 13.144C9.604 12.936 9.368 12.768 9.08 12.64C8.792 12.504 8.488 12.376 8.168 12.256C7.896 12.16 7.624 12.06 7.352 11.956C7.088 11.844 6.848 11.708 6.632 11.548C6.416 11.38 6.244 11.168 6.116 10.912C5.988 10.648 5.924 10.32 5.924 9.928C5.924 9.712 5.964 9.484 6.044 9.244C6.132 9.004 6.268 8.78 6.452 8.572C6.644 8.364 6.896 8.196 7.208 8.068C7.528 7.94 7.916 7.876 8.372 7.876C8.684 7.876 8.948 7.9 9.164 7.948C9.388 7.988 9.6 8.052 9.8 8.14C10 8.22 10.224 8.32 10.472 8.44V9.328C10.264 9.208 10.064 9.1 9.872 9.004C9.688 8.9 9.48 8.82 9.248 8.764C9.024 8.7 8.748 8.668 8.42 8.668C7.836 8.668 7.42 8.792 7.172 9.04C6.924 9.28 6.8 9.556 6.8 9.868C6.8 10.196 6.872 10.456 7.016 10.648C7.168 10.84 7.376 11 7.64 11.128C7.912 11.248 8.224 11.368 8.576 11.488C8.856 11.584 9.136 11.692 9.416 11.812C9.696 11.924 9.948 12.068 10.172 12.244C10.404 12.412 10.588 12.628 10.724 12.892C10.868 13.148 10.94 13.468 10.94 13.852C10.94 14.212 10.86 14.568 10.7 14.92C10.54 15.264 10.268 15.552 9.884 15.784C9.5 16.008 8.968 16.12 8.288 16.12Z" fill="#79FFFF"/>
<path d="M8.5 1L1 13.2941L8.5 21L15.5 13.2941L8.5 1Z" stroke="#79FFFF"/>
</svg>
