<svg width="6" height="10" viewBox="0 0 6 10" fill="none" xmlns="http://www.w3.org/2000/svg">
<path d="M3.288 9.12C2.888 9.12 2.548 9.092 2.268 9.036C1.988 8.98 1.736 8.9 1.512 8.796C1.288 8.692 1.044 8.572 0.78 8.436V7.5C1.036 7.716 1.38 7.908 1.812 8.076C2.244 8.244 2.748 8.328 3.324 8.328C3.932 8.328 4.372 8.2 4.644 7.944C4.924 7.68 5.064 7.348 5.064 6.948C5.064 6.612 4.972 6.344 4.788 6.144C4.604 5.936 4.368 5.768 4.08 5.64C3.792 5.504 3.488 5.376 3.168 5.256C2.896 5.16 2.624 5.06 2.352 4.956C2.088 4.844 1.848 4.708 1.632 4.548C1.416 4.38 1.244 4.168 1.116 3.912C0.988 3.648 0.924 3.32 0.924 2.928C0.924 2.712 0.964 2.484 1.044 2.244C1.132 2.004 1.268 1.78 1.452 1.572C1.644 1.364 1.896 1.196 2.208 1.068C2.528 0.94 2.916 0.875999 3.372 0.875999C3.684 0.875999 3.948 0.9 4.164 0.948C4.388 0.988 4.6 1.052 4.8 1.14C5 1.22 5.224 1.32 5.472 1.44V2.328C5.264 2.208 5.064 2.1 4.872 2.004C4.688 1.9 4.48 1.82 4.248 1.764C4.024 1.7 3.748 1.668 3.42 1.668C2.836 1.668 2.42 1.792 2.172 2.04C1.924 2.28 1.8 2.556 1.8 2.868C1.8 3.196 1.872 3.456 2.016 3.648C2.168 3.84 2.376 4 2.64 4.128C2.912 4.248 3.224 4.368 3.576 4.488C3.856 4.584 4.136 4.692 4.416 4.812C4.696 4.924 4.948 5.068 5.172 5.244C5.404 5.412 5.588 5.628 5.724 5.892C5.868 6.148 5.94 6.468 5.94 6.852C5.94 7.212 5.86 7.568 5.7 7.92C5.54 8.264 5.268 8.552 4.884 8.784C4.5 9.008 3.968 9.12 3.288 9.12Z" fill="#79FFFF"/>
</svg>
